# xmcd CD database file
#
# Track frame offsets:
#	150
#	23162
#	38225
#
# Disc length: 801 seconds
#
# Revision: 1
# Processed by: cddbd v1.4PL0 Copyright (c) Steve Scherf et al.
# Submitted via: CDex 1.40Beta4
#
DISCID=1b031f03
DTITLE=Joe Bonamassa - Chug This
DYEAR=2002
DGENRE=Blues
TTITLE0=No Slack
TTITLE1=Under The Radar
TTITLE2=My Mistake
EXTD=YEAR: 2002 ID3G:   0
EXTT0=
EXTT1=
EXTT2=
PLAYORDER=
